<svg width="303.26000366210934px" height="99.28001708984375px" xmlns="http://www.w3.org/2000/svg" viewBox="98.36999816894533 25.359991455078124 303.26000366210934 99.28001708984375" style="background: rgba(0, 0, 0, 0) none repeat scroll 0% 0%;" preserveAspectRatio="xMidYMid"><defs><linearGradient id="editing-outline-gradient" x1="-0.41354545764260087" x2="1.4135454576426008" y1="0.09326335692419985" y2="0.9067366430758002"><stop offset="0" stop-color="#ee4208"></stop><stop offset="1" stop-color="#4139ff"></stop></linearGradient><filter id="editing-outline" x="-100%" y="-100%" width="300%" height="300%"><feMorphology in="SourceGraphic" operator="dilate" radius="2" result="outline"></feMorphology><feComposite operator="out" in="outline" in2="SourceAlpha"></feComposite></filter></defs><g filter="url(#editing-outline)"><g transform="translate(149.26309204101562, 95.064453125)"><path d="M23.67-3.36L23.67-3.36L23.67-3.36Q21.61-1.27 18.79-0.15L18.79-0.15L18.79-0.15Q15.97 0.98 13.18 0.98L13.18 0.98L13.18 0.98Q10.39 0.98 9.41 0.49L9.41 0.49L7.89 8.82L-2.06 9.80L4.70-24.99L12.69-25.82L12.05-22.44L12.05-22.44Q14.11-25.92 18.38-25.92L18.38-25.92L18.38-25.92Q23.18-25.92 25.73-22.83L25.73-22.83L25.73-22.83Q27.98-20.04 27.98-15.78L27.98-15.78L27.98-15.78Q27.98-11.52 26.85-8.48L26.85-8.48L26.85-8.48Q25.73-5.44 23.67-3.36ZM12.59-17.10L10.00-2.74L10.00-2.74Q11.03-1.86 12.30-1.86L12.30-1.86L12.30-1.86Q13.57-1.86 14.31-2.35L14.31-2.35L14.31-2.35Q15.04-2.84 15.58-3.82L15.58-3.82L15.58-3.82Q17.05-6.47 18.23-14.50L18.23-14.50L18.23-14.50Q18.57-16.86 18.57-19.16L18.57-19.16L18.57-19.16Q18.57-21.46 18.06-22.20L18.06-22.20L18.06-22.20Q17.54-22.93 16.56-22.93L16.56-22.93L16.56-22.93Q13.57-22.93 12.59-17.10L12.59-17.10ZM50.76-8.28L50.76-8.28L50.76-8.28Q51.99-7.45 51.99-5.61L51.99-5.61L51.99-5.61Q51.99-3.77 51.06-2.60L51.06-2.60L51.06-2.60Q50.13-1.42 48.61-0.64L48.61-0.64L48.61-0.64Q45.47 0.98 42.09 0.98L42.09 0.98L42.09 0.98Q38.71 0.98 36.73 0.24L36.73 0.24L36.73 0.24Q34.74-0.49 33.42-1.86L33.42-1.86L33.42-1.86Q30.82-4.46 30.82-9.21L30.82-9.21L30.82-9.21Q30.82-16.61 34.84-21.12L34.84-21.12L34.84-21.12Q39.15-25.97 46.65-25.97L46.65-25.97L46.65-25.97Q51.30-25.97 53.61-24.01L53.61-24.01L53.61-24.01Q55.32-22.54 55.32-20.14L55.32-20.14L55.32-20.14Q55.32-11.52 40.43-11.52L40.43-11.52L40.43-11.52Q40.23-10.24 40.23-9.16L40.23-9.16L40.23-9.16Q40.23-6.91 41.23-6.05L41.23-6.05L41.23-6.05Q42.24-5.19 44.10-5.19L44.10-5.19L44.10-5.19Q45.96-5.19 47.95-6.05L47.95-6.05L47.95-6.05Q49.93-6.91 50.76-8.28ZM40.77-13.62L40.77-13.62L40.77-13.62Q44.25-13.62 46.26-15.78L46.26-15.78L46.26-15.78Q48.27-17.84 48.27-21.12L48.27-21.12L48.27-21.12Q48.27-22.25 47.85-22.86L47.85-22.86L47.85-22.86Q47.43-23.47 46.60-23.47L46.60-23.47L46.60-23.47Q45.77-23.47 45.06-23.15L45.06-23.15L45.06-23.15Q44.34-22.83 43.61-21.76L43.61-21.76L43.61-21.76Q41.80-19.31 40.77-13.62ZM57.77-4.90L57.77-4.90L57.77-4.90Q57.77-6.22 58.46-9.55L58.46-9.55L61.05-22.79L58.16-22.79L58.36-24.26L58.36-24.26Q64.24-26.02 69.92-30.33L69.92-30.33L72.28-30.33L71.10-24.99L74.92-24.99L74.48-22.79L70.71-22.79L68.21-9.55L68.21-9.55Q67.57-6.52 67.57-5.49L67.57-5.49L67.57-5.49Q67.57-3.14 69.63-2.65L69.63-2.65L69.63-2.65Q69.14-0.98 67.38 0L67.38 0L67.38 0Q65.61 0.98 63.11 0.98L63.11 0.98L63.11 0.98Q60.61 0.98 59.19-0.59L59.19-0.59L59.19-0.59Q57.77-2.16 57.77-4.90ZM77.96-20.48L77.96-20.48L77.96-20.48Q79.63-22.83 82.15-24.40L82.15-24.40L82.15-24.40Q84.67-25.97 87.76-25.97L87.76-25.97L87.76-25.97Q90.85-25.97 92.32-24.99L92.32-24.99L101.92-25.97L98.59-7.15L98.59-7.15Q96.87 2.45 93.25 6.22L93.25 6.22L93.25 6.22Q89.77 9.80 83.01 9.80L83.01 9.80L83.01 9.80Q77.86 9.80 74.92 8.18L74.92 8.18L74.92 8.18Q71.98 6.57 71.98 3.87L71.98 3.87L71.98 3.87Q71.98 1.86 73.50 0.71L73.50 0.71L73.50 0.71Q75.02-0.44 77.37-0.44L77.37-0.44L77.37-0.44Q79.43-0.44 81.00 0.49L81.00 0.49L81.00 0.49Q81.93 0.98 82.37 1.67L82.37 1.67L82.37 1.67Q81.24 2.65 81.24 4.26L81.24 4.26L81.24 4.26Q81.24 6.37 83.20 6.37L83.20 6.37L83.20 6.37Q86.49 6.37 88.35-1.37L88.35-1.37L88.35-1.37Q88.89-3.48 89.33-5.59L89.33-5.59L89.33-5.59Q87.12-2.89 82.12-2.89L82.12-2.89L82.12-2.89Q78.65-2.89 76.64-4.56L76.64-4.56L76.64-4.56Q74.63-6.22 74.63-10.14L74.63-10.14L74.63-10.14Q74.63-12.59 75.46-15.36L75.46-15.36L75.46-15.36Q76.29-18.13 77.96-20.48ZM84.33-10.00L84.33-10.00L84.33-10.00Q84.33-6.66 86.04-6.66L86.04-6.66L86.04-6.66Q87.22-6.66 88.35-7.94L88.35-7.94L88.35-7.94Q89.23-8.97 89.57-10.49L89.57-10.49L92.07-23.08L92.07-23.08Q91.83-23.13 91.58-23.23L91.58-23.23L91.58-23.23Q91.09-23.42 90.45-23.42L90.45-23.42L90.45-23.42Q87.47-23.42 85.70-18.52L85.70-18.52L85.70-18.52Q84.33-14.70 84.33-10.00ZM119.17-13.77L119.17-13.77L119.17-13.77Q120.93-16.91 120.93-20.09L120.93-20.09L120.93-20.09Q120.93-22.20 119.41-22.20L119.41-22.20L119.41-22.20Q118.24-22.20 117.01-20.19L117.01-20.19L117.01-20.19Q115.74-18.18 115.35-15.58L115.35-15.58L112.80 0L102.66 0.98L107.65-24.99L115.74-25.97L114.86-21.02L114.86-21.02Q117.26-25.97 122.65-25.97L122.65-25.97L122.65-25.97Q125.49-25.97 127.03-24.50L127.03-24.50L127.03-24.50Q128.58-23.03 128.58-20.02L128.58-20.02L128.58-20.02Q128.58-17.00 126.59-15.09L126.59-15.09L126.59-15.09Q124.61-13.18 121.23-13.18L121.23-13.18L121.23-13.18Q119.76-13.18 119.17-13.77ZM131.49-1.47L131.49-1.47L131.49-1.47Q130.34-2.74 129.83-4.75L129.83-4.75L129.83-4.75Q129.31-6.76 129.31-10.04L129.31-10.04L129.31-10.04Q129.31-13.33 130.44-16.32L130.44-16.32L130.44-16.32Q131.57-19.31 133.62-21.46L133.62-21.46L133.62-21.46Q137.84-25.97 144.80-25.97L144.80-25.97L144.80-25.97Q147.29-25.97 149.11-25.14L149.11-25.14L157.49-25.97L153.86-6.86L153.86-6.86Q153.71-6.27 153.71-5.19L153.71-5.19L153.71-5.19Q153.71-4.12 154.37-3.43L154.37-3.43L154.37-3.43Q155.04-2.74 156.02-2.65L156.02-2.65L156.02-2.65Q155.53-0.98 153.74 0L153.74 0L153.74 0Q151.95 0.98 149.94 0.98L149.94 0.98L149.94 0.98Q147.93 0.98 146.58 0.22L146.58 0.22L146.58 0.22Q145.24-0.54 144.84-1.81L144.84-1.81L144.84-1.81Q144.06-0.59 142.39 0.20L142.39 0.20L142.39 0.20Q140.73 0.98 138.50 0.98L138.50 0.98L138.50 0.98Q136.27 0.98 134.46 0.39L134.46 0.39L134.46 0.39Q132.64-0.20 131.49-1.47ZM141.83-21.36L141.83-21.36L141.83-21.36Q141.27-20.48 140.78-18.99L140.78-18.99L140.78-18.99Q140.29-17.49 139.48-13.50L139.48-13.50L139.48-13.50Q138.67-9.51 138.67-6.66L138.67-6.66L138.67-6.66Q138.67-3.82 139.11-2.99L139.11-2.99L139.11-2.99Q139.55-2.16 140.34-2.16L140.34-2.16L140.34-2.16Q141.90-2.16 143.06-3.65L143.06-3.65L143.06-3.65Q144.21-5.15 144.65-7.79L144.65-7.79L147.25-22.15L147.25-22.15Q146.22-23.03 145.02-23.03L145.02-23.03L145.02-23.03Q143.82-23.03 143.10-22.64L143.10-22.64L143.10-22.64Q142.39-22.25 141.83-21.36ZM195.41 0.98L195.41 0.98L195.41 0.98Q189.48 0.98 189.48-3.63L189.48-3.63L189.48-3.63Q189.48-5.63 190.34-9.53L190.34-9.53L190.34-9.53Q191.20-13.43 191.49-14.99L191.49-14.99L191.49-14.99Q192.18-18.57 192.18-19.70L192.18-19.70L192.18-19.70Q192.18-22.20 190.32-22.20L190.32-22.20L190.32-22.20Q189.09-22.20 187.92-20.51L187.92-20.51L187.92-20.51Q186.74-18.82 186.20-15.44L186.20-15.44L183.16 0L173.61 0.98L176.25-12.35L176.25-12.35Q176.69-14.55 177.09-17.05L177.09-17.05L177.09-17.05Q177.48-19.55 177.48-19.94L177.48-19.94L177.48-19.94Q177.48-22.20 175.81-22.20L175.81-22.20L175.81-22.20Q174.69-22.20 173.46-20.53L173.46-20.53L173.46-20.53Q172.24-18.87 171.55-15.44L171.55-15.44L168.56 0L158.91 0.98L164.05-24.99L172.04-25.97L171.21-21.02L171.21-21.02Q172.48-23.67 174.83-24.82L174.83-24.82L174.83-24.82Q177.18-25.97 180.86-25.97L180.86-25.97L180.86-25.97Q182.97-25.97 184.34-24.94L184.34-24.94L184.34-24.94Q185.71-23.91 186.15-22.25L186.15-22.25L186.15-22.25Q186.98-23.96 189.12-24.97L189.12-24.97L189.12-24.97Q191.25-25.97 193.87-25.97L193.87-25.97L193.87-25.97Q196.49-25.97 197.79-25.41L197.79-25.41L197.79-25.41Q199.09-24.84 199.87-23.91L199.87-23.91L199.87-23.91Q201.19-22.20 201.19-19.06L201.19-19.06L201.19-19.06Q201.19-15.97 199.87-9.55L199.87-9.55L199.87-9.55Q199.19-6.42 199.19-5.27L199.19-5.27L199.19-5.27Q199.19-4.12 199.85-3.43L199.85-3.43L199.85-3.43Q200.51-2.74 201.49-2.65L201.49-2.65L201.49-2.65Q201.00-0.98 199.31 0L199.31 0L199.31 0Q197.62 0.98 195.41 0.98Z" fill="url(#editing-outline-gradient)"></path></g></g><style>text {
  font-size: 64px;
  font-family: Arial Black;
  dominant-baseline: central;
  text-anchor: middle;
}</style></svg>